<?xml version="1.0" encoding="UTF-8"?>
<svg id="b" data-name="Capa 2" xmlns="http://www.w3.org/2000/svg" viewBox="0 0 138.6375 140.2986">
  <defs>
    <style>
      .d, .e {
        fill: #373639;
      }

      .e {
        stroke: #373639;
        stroke-miterlimit: 10;
        stroke-width: 2.3624px;
      }

      .f {
        fill: #0ece6b;
      }
    </style>
  </defs>
  <g id="c" data-name="Capa 1">
    <g>
      <g>
        <path class="f" d="M123.0239,86.8449c-1.1254-.5765-2.8425-2.2069-3.9576-3.5203l-.1459-.164c-.2905-.3155-32.0842-34.7137-38.8798-41.9045-7.6481-8.09-18.7719-10.4753-22.4068-11.2543l-.4344-.0947c-.8011-.3244-3.2716-1.7555-5.4985-3.2557L26.5273,6.8076c-1.1705-2.208-3.2968-3.8893-5.038-5.0763C20.1265,.6253,18.4083,.0135,16.6057,.0003,12.2643-.0385,8.0388,3.4677,5.9067,5.5607l-.1753,.1721C3.6083,7.8169,.0413,11.9602,.0005,16.2927c-.0195,1.8102,.5603,3.5394,1.6409,4.9224,1.156,1.7643,2.7976,3.9213,4.9842,5.1319l19.3265,25.4684c1.5038,2.317,2.8836,4.7969,3.1991,5.6226l.0827,.4125c.7155,3.6695,2.891,14.8362,10.8435,22.6384,7.0343,6.8989,40.9573,39.4401,41.2282,39.6979l.1771,.1608c1.0455,.9128,2.7835,2.7448,3.3778,3.9606,1.9471,3.9854,7.6229,10.0649,9.7223,11.5888,5.7853,4.1947,11.1711,5.4217,15.5779,3.5504l.2627-.1207c.7731-.3831,7.7769-3.9535,15.4455-11.3772l.0244-.024,.0251-.0247c7.6286-7.5929,11.2928-14.5305,11.6854-15.2971l.1171-.2439c1.9328-4.3329,.7959-9.7198-3.291-15.5817-1.4848-2.1272-7.4594-7.916-11.4061-9.9331Z"/>
        <path class="d" d="M8.7875,8.6285c-.7585,.731-4.5489,4.5352-4.5783,7.7553,0,.9231,.3057,1.7541,.8075,2.3048,1.5855,2.4636,3.0025,3.8649,4.3216,4.2706l20.0418,26.4114c1.6777,2.5694,3.6297,5.9973,3.8571,7.0419l.1274,.633c.6526,3.3514,2.638,13.5507,9.6583,20.4377,7.0889,6.9537,40.9518,39.4349,41.2145,39.6838,.1294,.1137,3.1809,2.7909,4.4039,5.2937,1.6522,3.3867,6.8792,8.9175,8.4138,10.0307,2.5812,1.8717,7.5044,4.7625,11.5006,3.0633,.2842-.1392,7.0282-3.5043,14.3954-10.6363,7.3045-7.2692,10.7657-13.9544,10.9283-14.2739,.3606-.8114,.5448-1.7169,.5448-2.6948,0-3.1574-1.8717-6.5068-3.4435-8.7646-1.0877-1.5562-6.5264-6.8851-9.8739-8.5961-2.4146-1.2347-4.9664-4.2079-5.278-4.5744-.2724-.2979-32.0402-34.6665-38.845-41.8671-6.7499-7.1399-16.9099-9.3193-20.2515-10.0346l-.6232-.1372c-1.0466-.245-4.4039-2.2382-6.8674-3.908L23.0888,9.4556c-.3783-1.3229-1.7482-2.7595-4.0922-4.3216-.6526-.5978-1.4915-.9192-2.4283-.927-3.1476-.0274-7.0419,3.6865-7.7808,4.4215Zm121.515,100.2992c-.0333,.0627-3.3651,6.4226-10.1326,13.1606-6.7244,6.5107-13.043,9.7446-13.2645,9.8602-1.4484,.6154-4.4705-.4586-7.522-2.6713-1.2288-.8898-5.9032-5.9483-7.1771-8.5588-1.6228-3.322-5.2995-6.4872-5.3564-6.5401-3.4945-3.3514-34.3196-32.9281-41.0479-39.527-6.1423-6.0247-7.9493-15.3106-8.5431-18.3661l-.1411-.6977c-.5194-2.4146-4.0628-7.8454-4.496-8.502L10.9003,18.4573l-.7291,.4096c-.4959-.5017-1.2563-1.4464-1.9187-2.4753l-.0686-.0843c.0235-.1921,.1666-.831,1.0721-2.1226,.9897-1.4092,2.2519-2.6654,2.3068-2.7184,.0118-.0137,1.2876-1.2622,2.7576-2.2519,1.3112-.8839,1.9462-1.0152,2.1422-1.0329l.149,.1196c.9662,.6448,1.8854,1.4131,2.3734,1.9168l-.4233,.7212,28.3341,22.329c1.3876,.9407,6.0854,4.0472,8.3158,4.5724l.6879,.1529c3.0417,.6507,12.2963,2.6321,18.1995,8.8783,2.7203,2.8791,11.4124,12.2023,37.3652,40.2659l1.3798,1.4895c.1294,.1548,3.2064,3.8316,6.4559,5.4955,2.5929,1.3268,7.5593,6.0913,8.4236,7.3339,1.6914,2.4244,2.7419,4.9213,2.7419,6.5166,0,.39-.0627,.7252-.1627,.9545Z"/>
      </g>
      <ellipse class="e" cx="82.2591" cy="83.4438" rx="19.441" ry="29.2631" transform="translate(-34.8977 81.5214) rotate(-44.4696)"/>
      <path class="e" d="M27.202,43.2248s5.8946-1.039,10.9305-5.9825,5.4048-9.142,5.4048-9.142l-10.8798-8.5765h0c-5.2618,3.4859-9.8095,7.9447-13.3986,13.1368l-.0343,.0496,7.9773,10.5145Z"/>
      <g>
        <path class="f" d="M102.1811,96.67l-6.5361,6.416-3.1934-3.2539c-1.209-1.2314-1.2871-3.1211-.0068-4.3779,1.2656-1.2422,3.1973-1.1719,4.4062,.0596l1.6436,1.6748,2.1367-2.0977,1.5498,1.5791Zm-5.0342,1.8418l-1.3086-1.333c-.585-.5967-1.3633-.5312-1.8008-.1016-.4619,.4531-.4932,1.1729,.0967,1.7744l1.3086,1.333,1.7041-1.6729Z"/>
        <path class="f" d="M92.5825,93.4376c-1.8867,1.8525-4.8525,1.7773-6.71-.1152-1.8564-1.8906-1.877-4.8672,.0049-6.7148,1.833-1.7998,4.8203-1.8291,6.7236,.1104,1.8145,1.8486,1.9209,4.8154-.0186,6.7197Zm-1.5967-1.627c1.0439-1.0254,1.124-2.5312,.084-3.5908-.9873-1.0049-2.498-1.0723-3.5996,.0098-1.0596,1.04-1.0684,2.5615-.0625,3.5859,1.002,1.0215,2.5186,1.0352,3.5781-.0049Z"/>
        <path class="f" d="M87.6382,81.8545l-6.5361,6.416-1.5547-1.584,2.7529-2.7021-5.252,.1562-1.9609-1.9971,5.2139-.1182,1.2139-6.4082,1.8896,1.9248-.959,4.6562,1.6836-.0088,1.9541-1.9189,1.5547,1.584Z"/>
        <path class="f" d="M73.896,80.9297l-4.5498-4.6348,1.333-1.3086,2.9951,3.0518,1.2129-1.1904-2.6221-2.6719,1.3291-1.3037,2.6221,2.6719,1.333-1.3086-3.042-3.0996,1.3281-1.3047,4.5967,4.6826-6.5361,6.416Z"/>
        <path class="f" d="M74.3276,68.295l-6.5361,6.416-3.2402-3.3008c-1.21-1.2324-1.3223-3.0879-.0703-4.3164,.9336-.917,2.166-1.0967,3.2344-.6523l1.1035-3.7676,1.6768,1.708-1.042,3.4541,1.0723,1.0928,2.252-2.2119,1.5498,1.5781Zm-5.1494,1.9561l-1.3555-1.3809c-.5859-.5967-1.2871-.6084-1.749-.1543-.4336,.4248-.4307,1.1123,.1602,1.7139l1.3555,1.3809,1.5889-1.5596Z"/>
      </g>
    </g>
  </g>
</svg>