<?xml version="1.0" encoding="UTF-8"?>
<svg id="b" data-name="Capa 2" xmlns="http://www.w3.org/2000/svg" viewBox="0 0 171.5359 160.1737">
  <defs>
    <style>
      .d {
        fill: #373639;
      }

      .e {
        fill: #0ece6b;
      }
    </style>
  </defs>
  <g id="c" data-name="Capa 1">
    <g>
      <g>
        <path class="e" d="M167.2304,132.4693c1.1843-.6636,2.2082-1.6164,2.9674-2.8023,1.5572-2.4254,1.7681-5.4371,.5657-8.0568l-10.6616-23.2098v-5.5477l.5665-.3366c.1683-.1011,.331-.2102,.4882-.3279,2.4009-1.8068,4.1177-4.188,4.9709-6.8923,.523-1.5374,.6344-3.2881,.6534-3.8925,.2836-5.5382,.3626-11.1767,.2346-16.7749l-.0427-1.6804c.0735-4.3176-2.2382-8.8666-5.7965-11.3711-.0901-.0632-.1825-.124-.2757-.1817-.2655-.1643-.5317-.3271-.7987-.4898v-14.039c0-.7308-.0948-1.4576-.2805-2.1544-.4985-1.8835-1.6346-3.3672-2.9587-4.5167,.32-3.074,.538-6.7217,.1548-9.1732C154.235,3.2407,134.9438,1.3723,125.6742,.474c-1.919-.1864-4.8185-.4677-8.0023-.4677C102.5497,.0063,96.5257,6.5953,94.135,12.1216c-.9354,2.1631-1.5595,5.0349-1.8653,8.5775-2.1181-.1296-4.2401-.1951-6.3496-.1951-2.2271,0-4.4677,.0735-6.7027,.2181-.286-2.5123-.6929-4.5048-1.2167-5.9545C74.4606,4.9686,65.9306,0,52.6476,0c-3.424,0-6.6822,.3081-9.3288,.5586-6.9571,.6621-25.4369,2.4207-28.7441,17.4346-.6613,2.9982-.5672,6.7501,.3073,11.6349-2.3575,2.081-3.477,4.4392-3.477,7.2384v14.0564c-.2576,.1572-.5143,.3144-.7703,.4732-.0924,.0569-.1833,.1169-.2718,.1793-3.5583,2.5013-5.8724,7.0511-5.7997,11.3726l-.0435,1.6962c-.1272,5.5935-.0482,11.232,.2299,16.6351,.0158,.5443,.109,2.4041,.6581,4.0181,.8548,2.7043,2.5716,5.0855,4.9717,6.8907,.1564,.1177,.3192,.2267,.4875,.3271,.1793,.1074,.3587,.2141,.538,.3208v5.6275L.7727,121.611c-1.2024,2.619-.9915,5.6306,.5625,8.0505,.7616,1.189,1.7855,2.1434,2.9713,2.8078l-3.5339,7.6934c-1.2024,2.619-.9915,5.6306,.5625,8.0505,1.554,2.427,4.2022,3.8752,7.0843,3.8752h4.7647c2.5819,4.8706,7.6879,8.0853,13.4599,8.0853h118.2186c5.7736,0,10.8789-3.2139,13.4607-8.0853h4.7932c2.8821,0,5.5303-1.4481,7.0811-3.8696,1.5572-2.4254,1.7681-5.4371,.5657-8.056l-3.5331-7.6934Zm-1.4687,9.9901c.414,.9014,.3405,1.9514-.1951,2.7857-.5349,.8351-1.4584,1.3399-2.4499,1.3399h-8.3033c-.1201,.0182-.2402,.0332-.365,.0363-.8011,4.5664-4.7932,8.0489-9.5856,8.0489H26.6442c-4.79,0-8.7797-3.4793-9.584-8.041h-.1201c-.1501,0-.2947-.0221-.4393-.0442H8.4195c-.9915,0-1.9151-.5048-2.4499-1.3399-.5356-.8343-.6091-1.8842-.1951-2.7857l6.6261-14.4261h-3.981c-.9915,0-1.9151-.5048-2.4499-1.3399-.5356-.8343-.6091-1.8842-.1951-2.7857l11.134-24.2408v-9.9798c-1.0752-.6281-2.1497-1.2577-3.2202-1.8969-1.3589-1.0223-2.51-2.4436-3.0527-4.2172-.2504-.6913-.3658-1.8108-.384-2.4499-.2789-5.4426-.3531-10.9065-.2291-16.3531l.0458-1.8171c-.0845-2.6024,1.3873-5.4181,3.4596-6.8749,1.1187-.6913,2.2492-1.3684,3.3806-2.043v-17.1684c0-.8525,.0087-2.5226,4.0893-4.809-1.3281-5.8044-1.6749-10.0375-1.0484-12.8792,2.4452-11.1009,17.4749-12.53,23.8924-13.1407,9.0989-.8611,24.3175-2.3124,28.9826,10.6,.8414,2.3283,1.1843,6.8623,1.3067,10.0801,7.7859-.9401,15.6373-.9457,23.4239-.019-.0213-3.6697,.2181-9.125,1.6314-12.3918,4.5127-10.4333,19.5417-8.9772,25.956-8.3547,9.0942,.8809,24.3143,2.3551,26.4371,15.9209,.4045,2.5882-.1406,7.8017-.5949,11.0448,1.6006,.7608,3.1736,1.9079,3.5165,3.2028,.0648,.2433,.0972,.4938,.0972,.7458v17.1502c1.1408,.681,2.2816,1.3644,3.4098,2.0612,2.0699,1.4568,3.5457,4.2718,3.4588,6.8749l.0466,1.8171c.124,5.4458,.049,10.9105-.2291,16.3531-.0213,.6368-.1343,1.7571-.3847,2.4499-.542,1.7736-1.6931,3.1941-3.0527,4.2172-1.08,.6447-2.1639,1.2799-3.2486,1.9143v9.8992l11.1633,24.304c.414,.9014,.3405,1.9514-.1951,2.7857-.5349,.8351-1.4584,1.3399-2.4499,1.3399h-3.9802l6.6253,14.4261Z"/>
        <g>
          <path class="d" d="M165.7663,123.9155c.4045,.8899,.3398,1.9416-.1942,2.783-.5339,.8252-1.4562,1.3268-2.4594,1.3268h-3.9803l6.6338,14.4326c.4045,.9061,.3398,1.9578-.1942,2.783-.5339,.8414-1.4562,1.3429-2.4594,1.3429h-8.3004c-.1133,.0162-.2427,.0324-.3721,.0324-.7928,4.579-4.7893,8.0577-9.5786,8.0577H26.6503c-4.7893,0-8.7858-3.4787-9.5948-8.0415h-.1133c-.1456,0-.2912-.0324-.4369-.0485H8.4154c-.987,0-1.9092-.5016-2.4432-1.3429-.5339-.8252-.6148-1.8769-.1942-2.783l6.6176-14.4326h-3.9803c-.987,0-1.9092-.5016-2.4432-1.3268-.5339-.8414-.6148-1.8931-.1942-2.783l11.1319-24.2539v-9.9669l2.4917-3.0095c1.1164,.9384,2.2328,1.8769,3.3331,2.8315,2.7991,2.4432,5.5498,4.9349,8.1709,7.6046-2.783-1.2782-5.5012-2.6697-8.1709-4.1421v7.3296c0,.4207-.0971,.8252-.2751,1.2135l-9.4977,20.6943h7.1192c1.6018,0,2.9124,1.2944,2.9124,2.9124,0,1.6018-1.3106,2.8962-2.9124,2.8962h-1.2782l-5.841,12.7337h6.8603c.1456,0,.2912,.0324,.4369,.0485h1.6342c1.6018,0,2.9124,1.3106,2.9124,2.9124,0,1.1973-.7443,2.2328-1.7798,2.6859,.5825,1.4238,1.974,2.4432,3.6243,2.4432h118.2113c1.618,0,3.0095-.987,3.6081-2.3946-1.1326-.3883-1.9578-1.4724-1.9578-2.7344,0-1.6018,1.3106-2.9124,2.9124-2.9124h1.8283c.1456-.0162,.2912-.0485,.4369-.0485h6.8927l-5.8572-12.7337h-1.9578c-1.6018,0-2.9124-1.2944-2.9124-2.8962,0-1.618,1.3106-2.9124,2.9124-2.9124h3.6081c.0485,0,.0809,0,.1294,.0162,.0324-.0162,.0647-.0162,.0971-.0162h3.9803l-9.5462-20.759c-.1618-.3883-.2589-.7928-.2589-1.2135v-7.2487c-2.6697,1.4562-5.3718,2.8477-8.1547,4.1259,2.6212-2.6535,5.3556-5.1453,8.1547-7.5723,.9546-.8252,1.9092-1.6504,2.88-2.4755l2.9448,2.6373v9.886l11.1642,24.3186Z"/>
          <path class="d" d="M161.5109,64.7775c.1294,5.4365,.0485,10.9053-.2265,16.3418-.0162,.6472-.1294,1.7636-.3883,2.4594-.5339,1.7636-1.6827,3.1875-3.0418,4.2068-1.0841,.6472-2.1681,1.2782-3.2522,1.9254l-2.9448-2.6373c.9708-.809,1.9578-1.618,2.9448-2.427v-24.8687c-.9546-.7766-1.8931-1.5533-2.8315-2.3461l2.8315-3.414c1.1326,.6796,2.2814,1.3591,3.414,2.0549,2.0549,1.4562,3.5434,4.2715,3.4463,6.8765l.0485,1.8283Z"/>
          <path class="e" d="M149.0361,101.4576l9.5462,20.759h-3.9803c-.0324,0-.0647,0-.0971,.0162-.0485-.0162-.0809-.0162-.1294-.0162h-3.6081c-1.6018,0-2.9124,1.2944-2.9124,2.9124,0,1.6018,1.3106,2.8962,2.9124,2.8962h1.9578l5.8572,12.7337h-6.8927c-.1456,0-.2912,.0324-.4369,.0485h-1.8283c-1.6018,0-2.9124,1.3106-2.9124,2.9124,0,1.262,.8252,2.3461,1.9578,2.7344-.5987,1.4077-1.9901,2.3946-3.6081,2.3946H26.6503c-1.6504,0-3.0418-1.0193-3.6243-2.4432,1.0355-.453,1.7798-1.4886,1.7798-2.6859,0-1.6018-1.3106-2.9124-2.9124-2.9124h-1.6342c-.1456-.0162-.2912-.0485-.4369-.0485h-6.8603l5.841-12.7337h1.2782c1.6018,0,2.9124-1.2944,2.9124-2.8962,0-1.618-1.3106-2.9124-2.9124-2.9124h-7.1192l9.4977-20.6943c.178-.3883,.2751-.7928,.2751-1.2135v-7.3296c2.6697,1.4724,5.388,2.8639,8.1709,4.1421-2.6212-2.6697-5.3718-5.1614-8.1709-7.6046-1.1002-.9546-2.2167-1.8931-3.3331-2.8315-.8252-.6796-1.6665-1.3753-2.4917-2.0549v-24.8364c.987-.809,1.974-1.618,2.9448-2.427s1.9254-1.6504,2.88-2.4755c3.0904-2.7182,6.0999-5.5336,8.899-8.5754-3.0418,1.3268-6.0028,2.7991-8.899,4.3848v-12.8631c.5825-.4045,1.6018-.987,2.5079-1.4238l.0971-.0485c.0162-.0162,.0485-.0162,.0647-.0324s1.5856-.8737,2.8153-1.4238c1.4562-.6472,2.1196-2.3785,1.4562-3.8347-.5663-1.2944-1.974-1.9578-3.3007-1.6504-1.1326-5.4203-.9708-7.9282-.7443-8.9961,1.3753-6.2293,11.3746-7.8959,18.7688-8.5916,10.4361-1.0032,20.0632-1.2297,22.9433,6.7794,.809,2.2328,1.0841,9.9345,1.0355,11.2128v.0324c-.0162,.0971,0,.178,0,.2751s0,.2103,.0162,.3074v.0485c.0162,.0809,.0485,.178,.0647,.2751,.0324,.0647,.0324,.1456,.0647,.2103,.0485,.1456,.1133,.2912,.178,.4207,.0162,.0162,.0162,.0485,.0324,.0647,.0971,.1618,.1942,.3074,.3074,.453,.0324,.0324,.0647,.0485,.0809,.0809,.0971,.0971,.1942,.1942,.3074,.2912,.0485,.0324,.0971,.0647,.1456,.1133,.0971,.0647,.1942,.1294,.2912,.178l.1942,.0971c.0971,.0485,.1942,.0809,.3074,.1294l.1942,.0485c.1133,.0324,.2265,.0485,.3398,.0647,.0485,0,.0809,.0162,.1133,.0162h.0971c.0485,0,.1133,.0162,.1618,.0162,.0809,0,.1618-.0162,.2427-.0162,.0485,0,.0809,0,.1294-.0162h.0809c9.3844-1.4562,18.8983-1.4562,28.2827-.0162l.1133,.0162c.6634,.0971,2.5564,.4369,3.5758,.7119,.2589,.0809,.5178,.1133,.7766,.1133,1.2782,0,2.4432-.8575,2.7991-2.1358,.4369-1.5533-.4692-3.1551-2.0225-3.592-.5501-.1456-1.2135-.2912-1.8607-.4207-.0809-4.2553,.2427-8.9152,1.1326-10.9701,2.5403-5.8734,12.669-5.5983,20.0632-4.8864,10.4361,1.0193,19.9176,2.6212,21.2444,11.0348,.3721,2.4108-.6634,10.1934-.9223,11.3422v.0809c-.0324,.0971-.0485,.1942-.0485,.2912-.0162,.0971-.0324,.1942-.0324,.2912,0,.0324-.0162,.0647-.0162,.0809,0,.0647,.0162,.1294,.0162,.1942,.0162,.0971,.0162,.1942,.0324,.2912s.0485,.178,.0647,.2751c.0324,.0809,.0485,.1618,.0809,.2589,.0324,.0809,.0809,.1618,.1133,.2589,.0324,.0809,.0809,.1456,.1294,.2265s.0971,.1618,.1456,.2265c.0647,.0809,.1133,.1456,.178,.2103,.0485,.0647,.1294,.1294,.1942,.1942s.1294,.1294,.1942,.178c.0809,.0647,.1618,.1133,.2589,.1618,.0647,.0485,.1294,.0971,.2103,.1294,.0971,.0485,.2103,.0971,.3236,.1294,.0647,.0162,.1133,.0485,.1618,.0647h.0324c.1942,.0647,.4045,.0971,.6148,.1133,.2751,.0647,.7605,.3074,1.2135,.5501v12.3615c-2.8962-1.5695-5.841-3.058-8.8667-4.3686,2.783,3.0257,5.7763,5.841,8.8667,8.5431,.987,.8575,1.9901,1.7313,2.9933,2.5726,.9384,.7928,1.8769,1.5695,2.8315,2.3461v24.8687c-.987,.809-1.974,1.618-2.9448,2.427-.9708,.8252-1.9254,1.6504-2.88,2.4755-2.7991,2.427-5.5336,4.9187-8.1547,7.5723,2.783-1.2782,5.485-2.6697,8.1547-4.1259v7.2487c0,.4207,.0971,.8252,.2589,1.2135Z"/>
          <path class="d" d="M154.602,36.8669v17.1508l-2.8315,3.414c-1.0032-.8414-2.0063-1.7151-2.9933-2.5726-3.0904-2.7021-6.0837-5.5174-8.8667-8.5431,3.0257,1.3106,5.9704,2.7991,8.8667,4.3686v-12.3615c-.453-.2427-.9384-.4854-1.2135-.5501-.2103-.0162-.4207-.0485-.6148-.1133h-.0324c-.0485-.0162-.0971-.0485-.1618-.0647-.1133-.0324-.2265-.0809-.3236-.1294-.0809-.0324-.1456-.0809-.2103-.1294-.0971-.0485-.178-.0971-.2589-.1618-.0647-.0485-.1294-.1133-.1942-.178s-.1456-.1294-.1942-.1942c-.0647-.0647-.1133-.1294-.178-.2103-.0485-.0647-.0971-.1456-.1456-.2265s-.0971-.1456-.1294-.2265c-.0324-.0971-.0809-.178-.1133-.2589-.0324-.0971-.0485-.178-.0809-.2589-.0162-.0971-.0485-.178-.0647-.2751s-.0162-.1942-.0324-.2912c0-.0647-.0162-.1294-.0162-.1942,0-.0162,.0162-.0485,.0162-.0809,0-.0971,.0162-.1942,.0324-.2912,0-.0971,.0162-.1942,.0485-.2912v-.0809c.2589-1.1488,1.2944-8.9314,.9223-11.3422-1.3268-8.4136-10.8083-10.0154-21.2444-11.0348-7.3943-.7119-17.523-.987-20.0632,4.8864-.8899,2.0549-1.2135,6.7147-1.1326,10.9701,.6472,.1294,1.3106,.2751,1.8607,.4207,1.5533,.4369,2.4594,2.0387,2.0225,3.592-.356,1.2782-1.5209,2.1358-2.7991,2.1358-.2589,0-.5178-.0324-.7766-.1133-1.0193-.2751-2.9124-.6148-3.5758-.7119l-.1133-.0162c-9.3844-1.44-18.8983-1.44-28.2827,.0162h-.0809c-.0485,.0162-.0809,.0162-.1294,.0162-.0809,0-.1618,.0162-.2427,.0162-.0485,0-.1133-.0162-.1618-.0162h-.0971c-.0324,0-.0647-.0162-.1133-.0162-.1133-.0162-.2265-.0324-.3398-.0647l-.1942-.0485c-.1133-.0485-.2103-.0809-.3074-.1294l-.1942-.0971c-.0971-.0485-.1942-.1133-.2912-.178-.0485-.0485-.0971-.0809-.1456-.1133-.1133-.0971-.2103-.1942-.3074-.2912-.0162-.0324-.0485-.0485-.0809-.0809-.1133-.1456-.2103-.2912-.3074-.453-.0162-.0162-.0162-.0485-.0324-.0647-.0647-.1294-.1294-.2751-.178-.4207-.0324-.0647-.0324-.1456-.0647-.2103-.0162-.0971-.0485-.1942-.0647-.2751v-.0485c-.0162-.0971-.0162-.2103-.0162-.3074s-.0162-.178,0-.2751v-.0324c.0485-1.2782-.2265-8.9799-1.0355-11.2128-2.88-8.0091-12.5072-7.7826-22.9433-6.7794-7.3943,.6957-17.3935,2.3623-18.7688,8.5916-.2265,1.0679-.3883,3.5758,.7443,8.9961,1.3268-.3074,2.7344,.356,3.3007,1.6504,.6634,1.4562,0,3.1875-1.4562,3.8347-1.2297,.5501-2.7991,1.4077-2.8153,1.4238s-.0485,.0162-.0647,.0324l-.0971,.0485c-.9061,.4369-1.9254,1.0193-2.5079,1.4238v12.8631c2.8962-1.5856,5.8572-3.058,8.899-4.3848-2.7991,3.0418-5.8086,5.8572-8.899,8.5754-.9546,.8252-1.9092,1.6665-2.88,2.4755l-2.9448-3.3331v-17.167c0-.8575,0-2.5241,4.0935-4.8055-1.3268-5.8086-1.6827-10.0478-1.0517-12.8793,2.4432-11.0995,17.4744-12.5395,23.8979-13.1382,9.0932-.8737,24.3024-2.3137,28.9784,10.5979,.8414,2.3299,1.1811,6.8603,1.3106,10.0802,7.7826-.9384,15.6299-.9546,23.4125-.0162-.0162-3.6729,.2265-9.1255,1.6342-12.3939,4.5142-10.4361,19.5455-8.9799,25.9528-8.3651,9.0932,.8899,24.3186,2.3623,26.4382,15.9212,.4045,2.5888-.1294,7.7988-.5987,11.051,1.6018,.7605,3.1875,1.9092,3.5272,3.2036,.0647,.2427,.0971,.4854,.0971,.7443Z"/>
          <path class="d" d="M16.9099,54.0339l2.9448,3.3331c-.9708,.809-1.9578,1.618-2.9448,2.427v24.8364c.8252,.6796,1.6665,1.3753,2.4917,2.0549l-2.4917,3.0095c-1.0841-.631-2.1519-1.262-3.2198-1.9092-1.3591-1.0193-2.5079-2.4432-3.058-4.2068-.2427-.6957-.356-1.8122-.3883-2.4594-.2751-5.4365-.3398-10.9053-.2265-16.3418l.0485-1.8283c-.0809-2.605,1.3915-5.4203,3.4625-6.8765,1.1164-.6796,2.249-1.3591,3.3816-2.0387Z"/>
        </g>
      </g>
      <path class="d" d="M102.7528,96.2688V50.4086c0-1.6077-1.3028-2.9105-2.9105-2.9105s-2.9105,1.3028-2.9105,2.9105v45.3452c-1.2427,.2425-2.2295,1.2656-2.3464,2.5874-.1414,1.6014,1.0429,3.014,2.6435,3.1554,18.4253,1.6251,27.7676,6.7114,27.7676,15.1182,0,13.2695-20.0631,17.9971-38.8384,17.9971-19.0637,0-39.4341-4.7276-39.4341-17.9971,0-3.3371,0-13.4939,28.2645-15.3505,1.6046-.1051,2.8197-1.4908,2.7138-3.0946-.1019-1.5429-1.4047-2.7193-2.9137-2.7083V50.4086c0-1.6077-1.3028-2.9105-2.9105-2.9105s-2.9105,1.3028-2.9105,2.9105v45.5846c-18.6102,2.2485-28.0646,9.1613-28.0646,20.6216,0,14.9144,16.9179,23.8182,45.2551,23.8182,27.9643,0,44.6594-8.9038,44.6594-23.8182,0-10.9926-9.452-17.8178-28.0646-20.3459Z"/>
      <path class="d" d="M69.2922,113.3938c4.3863,3.1696,9.6432,6.5423,13.6574,7.8254v3.5181c0,1.6077,1.3028,2.9105,2.9105,2.9105s2.9105-1.3028,2.9105-2.9105v-3.5181c4.0142-1.283,9.2703-4.6557,13.6574-7.8254,3.9139-2.8276,1.7665-7.5014-3.8119-8.2362-8.4274-1.1108-17.0854-1.1108-25.512,0-5.5793,.7347-7.7258,5.4086-3.8119,8.2362Z"/>
      <path class="d" d="M46.4395,87.2324c5.4702,0,9.9047-7.7029,9.9047-17.2039s-4.4345-17.2031-9.9047-17.2031-9.9055,7.7021-9.9055,17.2031,4.4353,17.2039,9.9055,17.2039Z"/>
      <path class="d" d="M125.2808,52.8253c-5.4702,0-9.9055,7.7021-9.9055,17.2031s4.4353,17.2039,9.9055,17.2039,9.9047-7.7029,9.9047-17.2039-4.4345-17.2031-9.9047-17.2031Z"/>
      <path class="d" d="M41.2062,23.1462c12.3712-3.0472,15.7763-.2508,16.4249,.0652,.2275,1.441,.3302,5.1463,.3294,7.4714-.0008,1.6069,1.302,2.9105,2.9097,2.9113h.0008c1.6069,0,2.9097-1.3028,2.9105-2.9097,.0008-1.0934-.0213-6.6656-.4993-8.9188-.3018-1.4252-1.1535-2.6127-2.4618-3.4343-1.2254-.7687-4.9504-4.7952-21.0064-.837-1.5611,.3847-2.5147,1.9617-2.13,3.522,.3855,1.5619,1.964,2.5187,3.522,2.13Z"/>
      <path class="d" d="M141.0318,23.8126c-.06-1.0942-.493-2.7098-2.2105-4.1967-4.2038-3.6397-13.3912-4.2559-20.5885-3.6152-1.6014,.1422-2.7841,1.5548-2.6427,3.1562,.1422,1.6014,1.5682,2.7809,3.1562,2.6427,10.2192-.9054,15.9486,1.4055,16.4739,2.3362,.0687,1.2443-.4314,5.238-.8098,7.6768-.2457,1.5888,.8422,3.0756,2.431,3.3221,.1509,.0229,.301,.0348,.4495,.0348,1.4102-.0008,2.6498-1.0278,2.8726-2.4657,.1675-1.0808,.997-6.5913,.8683-8.8911Z"/>
    </g>
  </g>
</svg>