<?xml version="1.0" encoding="UTF-8"?>
<svg id="b" data-name="Capa 2" xmlns="http://www.w3.org/2000/svg" viewBox="0 0 142.4802 140.2986">
  <defs>
    <style>
      .d {
        fill: #373639;
      }

      .e {
        stroke: #373639;
        stroke-linecap: round;
        stroke-linejoin: round;
        stroke-width: 3.5529px;
      }

      .e, .f {
        fill: #0ece6b;
      }

      .g {
        fill: none;
      }
    </style>
  </defs>
  <g id="c" data-name="Capa 1">
    <g>
      <g>
        <path class="g" d="M130.9454,20.9779L30.478,119.6012l-15.8314,6.2263,6.5183-15.714L121.6327,11.4896c.4948-.4851,1.104-.8316,1.7615-1.0013,.3323-.0857,.6793-.1278,1.031-.1247,1.0485,.0096,2.0324,.4282,2.7685,1.1777l3.8043,3.8748c1.5184,1.5468,1.4949,4.0422-.0526,5.5617Z"/>
        <path class="f" d="M138.3933,8.156l-3.8044-3.8753C131.9145,1.5561,128.3387,.036,124.5196,.0007c-1.2587-.0124-2.5117,.1403-3.722,.4526-2.4101,.6219-4.6317,1.8808-6.4245,3.6409L13.1528,103.4569c-.5004,.4906-.8904,1.0688-1.1584,1.7165L.3968,133.1319c-.7979,1.9239-.3711,4.1279,1.0879,5.6148,1.2931,1.3176,3.2049,1.8496,4.9898,1.389,.2045-.0528,.4077-.1183,.6079-.1973l28.1701-11.0783c.6481-.2546,1.232-.6329,1.7323-1.124L138.2059,28.3727c5.625-5.5225,5.709-14.5914,.1874-20.2166Zm-2.5728,17.7865L34.6003,125.3053c-.1704,.1672-.3723,.2985-.5942,.3855l-28.1728,11.0795c-.6672,.263-1.4185,.1-1.9178-.4088s-.6464-1.2664-.3731-1.9251l11.5996-27.9625c.091-.2204,.2259-.4198,.3963-.5869L116.7585,6.5243c1.3828-1.3574,3.0624-2.3023,4.8899-2.7738,.9159-.2363,1.8685-.3539,2.8397-.3446,2.9087,.0269,5.6332,1.1846,7.6709,3.2607l3.8043,3.8748c4.2066,4.2855,4.1422,11.1941-.1427,15.4011Z"/>
      </g>
      <path class="e" d="M115.6118,7.6025h23.6582v5.8868c0,5.0301-4.0838,9.114-9.114,9.114h-5.4303c-5.0301,0-9.114-4.0838-9.114-9.114V7.6025h0Z" transform="translate(205.9393 116.6276) rotate(-134.4696)"/>
      <polyline class="e" points="16.7825 107.1549 5.1834 135.1173 33.3558 124.0379"/>
      <polygon class="d" points="14.7813 131.528 16.2899 124.2295 8.947 125.5941 5.1834 135.1174 14.7813 131.528"/>
      <rect class="e" x="58.8381" y="6.9383" width="23.6582" height="127.7932" transform="translate(69.6224 170.8867) rotate(-134.4696)"/>
      <line class="e" x1="30.3208" y1="110.441" x2="115.1774" y2="27.1412"/>
      <rect class="e" x="107.3478" y="19.1353" width="23.6582" height="8.16" transform="translate(186.0968 124.5256) rotate(-134.4695)"/>
    </g>
  </g>
</svg>