<?xml version="1.0" encoding="UTF-8"?>
<svg id="b" data-name="Capa 2" xmlns="http://www.w3.org/2000/svg" viewBox="0 0 132.6155 132.6155">
  <defs>
    <style>
      .d {
        fill: #373639;
      }

      .e {
        stroke: #373639;
        stroke-miterlimit: 10;
        stroke-width: 4.6184px;
      }

      .e, .f {
        fill: #0ece6b;
      }
    </style>
  </defs>
  <g id="c" data-name="Capa 1">
    <g>
      <path class="f" d="M66.3078,132.6155C29.7456,132.6155,0,102.8699,0,66.3078S29.7456,0,66.3078,0s66.3078,29.7456,66.3078,66.3078-29.7456,66.3078-66.3078,66.3078Zm-7.2497-26.5207l2.4362-3.5251-8.5159-14.3032c-4.2405-.4895-9.5605-1.2637-14.1455-2.4131l-5.1188,7.0194c2.761,4.7393,4.9687,8.0017,6.5266,10.1233l18.8174,3.0987Zm17.2203-11.7281c3.913-.2251,8.9798-.6634,12.6251-1.0011l9.4744-17.685-6.4336-9.6321-18.1975,1.4564c-1.8307,4.1203-4.0665,9.0523-5.8768,12.7394l8.4085,14.1224Zm-57.9249-16.203c.9422,1.0932,1.9894,2.0806,3.0245,2.9418l5.3763-7.3742c-.7521-4.5585-1.5511-10.6298-1.5766-15.9626l-4.5057-2.541-3.4057,5.0514c-.243,1.9936-.3658,4.0145-.3658,6.0286,0,3.9821,.4886,7.9642,1.453,11.856Zm45.947-37.9077c3.1038,3.4313,6.3492,7.1917,8.6958,10.3552l16.9534-1.3575,3.4748-8.7487-12.8766-13.911-12.064,.6174-4.1834,13.0446Zm-31.1057,2.6331c3.7212-2.5428,9.0642-5.6978,14.9555-7.6146l3.9318-12.2618-4.3351-2.4745c-6.0636,2.4728-11.6317,6.165-16.3002,10.8174l-3.0015,8.8527,4.7495,2.6809Z"/>
      <circle class="e" cx="66.3078" cy="66.3079" r="60.0262"/>
      <path class="d" d="M66.3078,4.7619C32.3713,4.7619,4.7619,32.3722,4.7619,66.3078s27.6094,61.5459,61.5459,61.5459,61.5459-27.6103,61.5459-61.5459S100.2443,4.7619,66.3078,4.7619Zm53.9748,38.9808l-14.0579-6.1421c-.0337-.3133-.1386-.6216-.369-.8706l-18.6655-20.1685c-.2705-.2918-.6291-.4431-.9954-.4727l.3729-4.6664c15.2122,5.6333,27.4614,17.4183,33.7149,32.3203Zm-25.9789,57.4837c-4.5696,.4475-16.5431,1.5717-21.6791,1.5931l-12.9809-21.8013c2.3382-4.1414,7.4362-15.649,9.495-20.3475l27.429-2.196,11.4536,17.1474-13.7177,25.6043Zm-32.1651,14.2566l-26.8722-4.425c-2.0369-2.508-5.9937-7.9113-11.3822-17.6856l11.1209-15.2517c5.8776,2.4257,17.3517,3.7148,21.8441,4.1433l13.0735,21.957-7.784,11.262ZM7.8016,66.3078c0-3.0293,.2318-6.0055,.6779-8.9121l8.2146-12.1827,14.3846,8.1139c-.817,6.8803,1.1179,18.4378,1.8604,22.4687l-11.5326,15.8163c-2.82-1.5955-7.8652-4.8904-11.4664-9.6688-1.3834-4.9808-2.1386-10.22-2.1386-15.6354ZM63.1936,18.7642l21.3834-1.0951c.0175,.3429,.1306,.6836,.3821,.9554l17.9032,19.3449-6.9548,17.5098-26.3309,2.108c-2.1167-4.0493-10.3976-13.1317-13.5381-16.5092l7.1551-22.3138Zm-15.4882-7.9131l12.5392,7.1557-7.0774,22.0715c-9.0478,1.8724-17.7532,8.2142-20.7068,10.5387l-14.2268-8.0249,5.5702-16.4257c6.5246-6.9049,14.7038-12.2216,23.9017-15.3154Zm-12.0066,105.2919l.6292-1.8316,26.032,4.2866c2.5863,1.4909,7.7459,4.2491,12.5432,5.5791-2.8066,.4151-5.6753,.6367-8.5955,.6367-11.2145,0-21.698-3.1776-30.6089-8.6709Zm63.4324-1.4305c.1117-2.9781,.0065-8.7031-2.0281-12.2747l13.6472-25.4727c4.9821-1.2023,11.1665-6.0096,14.0062-8.3963-.7332,19.1691-10.7211,36.0048-25.6253,46.1437Z"/>
    </g>
  </g>
</svg>